# xmcd
#
# Track frame offsets:
# 150
# 17443
# 31648
# 46181
# 64710
# 82410
# 100407
# 117938
# 133583
# 146181
# 163280
# 180242
# 196330
#
# Disc length: 2840 seconds
#
#
# Revision: 0
# Processed by: cddbd v1.5.2PL0 Copyright (c) Steve Scherf et al.
# Submitted via: FreeRIP 2.951 
#
DISCID=ae0b160d
DTITLE=Marcio Godinho - A guitarra Serrana
DYEAR=2007
DGENRE=Regional
TTITLE0=Vai Bombar
TTITLE1=Flor de Morenaça
TTITLE2=Cura da Paixão
TTITLE3=Pirulito Safado
TTITLE4=Versos Campeiros
TTITLE5=Barquinho de Papel
TTITLE6=Não sou Tirano
TTITLE7=Baile Macanudo
TTITLE8=Pra você que veio de fora
TTITLE9=Na esperança de ti encontrar
TTITLE10=So por farra
TTITLE11=Vida de Infância
TTITLE12=A guitarra Serrana
EXTD=Musica Tradicionalista da Serra Catarinense
EXTT0=
EXTT1=
EXTT2=
EXTT3=
EXTT4=
EXTT5=
EXTT6=
EXTT7=
EXTT8=
EXTT9=
EXTT10=
EXTT11=
EXTT12=
PLAYORDER=
